<svg xmlns="http://www.w3.org/2000/svg" xmlns:v="https://svgstorm.com"
viewBox = "0 0 1200 1130"
width="1200"
height="1130">
<g fill="None" fill-opacity="0.0" stroke="#000000" stroke-opacity="0.59" stroke-width="0.3"><path d="
M 0.00 1130.00 
L 1200.00 1130.00
L 1200.00 0.00
L 0.00 0.00
L 0.00 1130.00
M 1199.00 1.00 
C 1198.99 377.00 1199.00 753.00 1199.00 1129.00
C 799.67 1129.01 400.33 1129.00 1.00 1129.00
C 1.00 753.00 1.00 377.00 1.00 1.00
C 400.34 1.00 799.67 1.00 1199.00 1.00 Z"/>
</g>
<g fill="None" fill-opacity="0.0" stroke="#000000" stroke-opacity="1.00" stroke-width="0.3"><path d="
M 1199.00 1.00 
C 799.67 1.00 400.34 1.00 1.00 1.00
C 1.00 377.00 1.00 753.00 1.00 1129.00
C 400.33 1129.00 799.67 1129.01 1199.00 1129.00
C 1199.00 753.00 1198.99 377.00 1199.00 1.00
M 442.00 471.00 
C 496.63 347.34 550.39 222.40 607.00 100.00
C 659.61 224.41 716.40 347.56 769.00 472.00
C 868.33 344.99 964.74 215.01 1064.00 88.00
C 966.26 281.97 865.54 474.90 768.00 669.00
C 712.02 531.78 660.76 390.89 606.00 253.00
C 551.46 391.62 496.97 530.19 443.00 669.00
C 343.31 476.30 244.88 281.88 147.00 88.00
C 196.74 151.11 244.93 216.15 294.25 279.75 C 343.57 343.35 391.30 409.42 442.00 471.00
M 686.00 904.00 
C 679.15 900.61 667.73 905.53 660.00 904.00 C 652.27 902.47 643.09 905.86 635.00 905.00 C 626.91 904.14 618.10 906.11 610.00 906.00 C 601.90 905.89 594.15 908.08 586.00 908.00 C 577.85 907.92 570.05 909.61 561.99 909.99 C 553.93 910.37 545.94 911.19 537.98 911.98 C 530.01 912.76 522.06 913.53 514.00 914.00
C 489.50 970.78 463.09 1027.09 439.00 1084.00
C 418.24 1035.04 400.37 983.67 380.00 934.00
C 267.54 951.63 158.53 983.05 51.00 1018.00
C 137.68 942.08 248.67 906.76 356.00 875.00
C 319.61 789.69 290.81 702.69 255.22 616.78 C 219.63 530.86 190.13 442.00 157.22 354.78 C 124.31 267.55 93.79 177.72 62.00 90.00
C 190.26 346.06 314.10 605.43 443.00 861.00
C 493.51 731.21 546.66 602.22 599.00 473.00
C 652.96 601.38 703.09 732.84 757.00 861.00
C 882.37 603.86 1008.28 346.31 1135.00 90.00
C 1105.66 173.30 1074.70 256.58 1044.68 339.68 C 1014.65 422.78 983.27 505.88 952.68 588.68 C 922.08 671.47 887.61 751.39 857.22 834.22 C 826.84 917.06 798.70 1001.26 765.00 1083.00
C 749.98 1055.46 738.42 1023.55 725.08 993.92 C 711.73 964.30 699.60 933.62 686.00 904.00
M 1107.00 809.00 
C 1087.54 852.62 1065.61 895.41 1046.00 939.00
C 976.33 923.59 905.41 912.75 833.00 908.00
C 836.28 897.38 840.67 889.04 844.31 878.31 C 847.94 867.57 852.81 859.76 856.31 848.31 C 859.80 836.85 865.30 831.44 868.31 818.31 C 871.31 805.17 885.44 806.09 899.00 807.00 C 912.56 807.91 927.21 806.62 941.00 807.00 C 954.79 807.38 969.12 806.90 983.00 807.00 C 996.88 807.10 1011.11 807.11 1025.00 807.00 C 1038.89 806.89 1052.41 807.09 1066.00 808.00 C 1079.59 808.91 1093.79 806.64 1107.00 809.00 Z"/>
</g>
<g fill="None" fill-opacity="0.0" stroke="#FDFDFD" stroke-opacity="1.00" stroke-width="0.3"><path d="
M 442.00 471.00 
C 391.30 409.42 343.57 343.35 294.25 279.75 C 244.93 216.15 196.74 151.11 147.00 88.00
C 244.88 281.88 343.31 476.30 443.00 669.00
C 496.97 530.19 551.46 391.62 606.00 253.00
C 660.76 390.89 712.02 531.78 768.00 669.00
C 865.54 474.90 966.26 281.97 1064.00 88.00
C 964.74 215.01 868.33 344.99 769.00 472.00
C 716.40 347.56 659.61 224.41 607.00 100.00
C 550.39 222.40 496.63 347.34 442.00 471.00 Z"/>
</g>
<g fill="None" fill-opacity="0.0" stroke="#FDFDFD" stroke-opacity="1.00" stroke-width="0.3"><path d="
M 356.00 875.00 
C 364.20 894.23 372.67 914.14 380.00 934.00
C 400.37 983.67 418.24 1035.04 439.00 1084.00
C 463.09 1027.09 489.50 970.78 514.00 914.00
C 525.41 887.56 537.16 860.90 549.00 835.00
C 567.13 795.36 583.13 754.07 602.00 715.00
C 617.30 750.37 633.71 785.34 648.00 821.00
C 660.30 848.53 673.72 876.20 686.00 904.00
C 699.60 933.62 711.73 964.30 725.08 993.92 C 738.42 1023.55 749.98 1055.46 765.00 1083.00
C 798.70 1001.26 826.84 917.06 857.22 834.22 C 887.61 751.39 922.08 671.47 952.68 588.68 C 983.27 505.88 1014.65 422.78 1044.68 339.68 C 1074.70 256.58 1105.66 173.30 1135.00 90.00
C 1008.28 346.31 882.37 603.86 757.00 861.00
C 703.09 732.84 652.96 601.38 599.00 473.00
C 546.66 602.22 493.51 731.21 443.00 861.00
C 314.10 605.43 190.26 346.06 62.00 90.00
C 93.79 177.72 124.31 267.55 157.22 354.78 C 190.13 442.00 219.63 530.86 255.22 616.78 C 290.81 702.69 319.61 789.69 356.00 875.00 Z"/>
</g>
<g fill="None" fill-opacity="0.0" stroke="#000000" stroke-opacity="1.00" stroke-width="0.3"><path d="
M 549.00 835.00 
C 554.01 831.90 562.32 833.84 568.22 832.22 C 574.12 830.60 582.95 831.43 589.00 830.00 C 595.05 828.57 602.39 828.58 608.22 827.22 C 614.05 825.86 623.27 826.48 628.22 824.22 C 633.18 821.96 645.44 825.51 648.00 821.00
C 633.71 785.34 617.30 750.37 602.00 715.00
C 583.13 754.07 567.13 795.36 549.00 835.00 Z"/>
</g>
<g fill="None" fill-opacity="0.0" stroke="#D71024" stroke-opacity="1.00" stroke-width="0.3"><path d="
M 1107.00 809.00 
C 1093.79 806.64 1079.59 808.91 1066.00 808.00 C 1052.41 807.09 1038.89 806.89 1025.00 807.00 C 1011.11 807.11 996.88 807.10 983.00 807.00 C 969.12 806.90 954.79 807.38 941.00 807.00 C 927.21 806.62 912.56 807.91 899.00 807.00 C 885.44 806.09 871.31 805.17 868.31 818.31 C 865.30 831.44 859.80 836.85 856.31 848.31 C 852.81 859.76 847.94 867.57 844.31 878.31 C 840.67 889.04 836.28 897.38 833.00 908.00
C 905.41 912.75 976.33 923.59 1046.00 939.00
C 1065.61 895.41 1087.54 852.62 1107.00 809.00 Z"/>
</g>
<g fill="None" fill-opacity="0.0" stroke="#D71225" stroke-opacity="1.00" stroke-width="0.3"><path d="
M 549.00 835.00 
C 537.16 860.90 525.41 887.56 514.00 914.00
C 522.06 913.53 530.01 912.76 537.98 911.98 C 545.94 911.19 553.93 910.37 561.99 909.99 C 570.05 909.61 577.85 907.92 586.00 908.00 C 594.15 908.08 601.90 905.89 610.00 906.00 C 618.10 906.11 626.91 904.14 635.00 905.00 C 643.09 905.86 652.27 902.47 660.00 904.00 C 667.73 905.53 679.15 900.61 686.00 904.00
C 673.72 876.20 660.30 848.53 648.00 821.00
C 645.44 825.51 633.18 821.96 628.22 824.22 C 623.27 826.48 614.05 825.86 608.22 827.22 C 602.39 828.58 595.05 828.57 589.00 830.00 C 582.95 831.43 574.12 830.60 568.22 832.22 C 562.32 833.84 554.01 831.90 549.00 835.00 Z"/>
</g>
<g fill="None" fill-opacity="0.0" stroke="#D61124" stroke-opacity="1.00" stroke-width="0.3"><path d="
M 380.00 934.00 
C 372.67 914.14 364.20 894.23 356.00 875.00
C 248.67 906.76 137.68 942.08 51.00 1018.00
C 158.53 983.05 267.54 951.63 380.00 934.00 Z"/>
</g>
<g fill="#000000" fill-opacity="0.59" stroke="None">
<path d="
M 0.00 1130.00 
L 1200.00 1130.00
L 1200.00 0.00
L 0.00 0.00
L 0.00 1130.00
M 1199.00 1.00 
C 1198.99 377.00 1199.00 753.00 1199.00 1129.00
C 799.67 1129.01 400.33 1129.00 1.00 1129.00
C 1.00 753.00 1.00 377.00 1.00 1.00
C 400.34 1.00 799.67 1.00 1199.00 1.00 Z"/>
</g>
<g fill="#000000" fill-opacity="1.00" stroke="None">
<path d="
M 1199.00 1.00 
C 799.67 1.00 400.34 1.00 1.00 1.00
C 1.00 377.00 1.00 753.00 1.00 1129.00
C 400.33 1129.00 799.67 1129.01 1199.00 1129.00
C 1199.00 753.00 1198.99 377.00 1199.00 1.00
M 442.00 471.00 
C 496.63 347.34 550.39 222.40 607.00 100.00
C 659.61 224.41 716.40 347.56 769.00 472.00
C 868.33 344.99 964.74 215.01 1064.00 88.00
C 966.26 281.97 865.54 474.90 768.00 669.00
C 712.02 531.78 660.76 390.89 606.00 253.00
C 551.46 391.62 496.97 530.19 443.00 669.00
C 343.31 476.30 244.88 281.88 147.00 88.00
C 196.74 151.11 244.93 216.15 294.25 279.75 C 343.57 343.35 391.30 409.42 442.00 471.00
M 686.00 904.00 
C 679.15 900.61 667.73 905.53 660.00 904.00 C 652.27 902.47 643.09 905.86 635.00 905.00 C 626.91 904.14 618.10 906.11 610.00 906.00 C 601.90 905.89 594.15 908.08 586.00 908.00 C 577.85 907.92 570.05 909.61 561.99 909.99 C 553.93 910.37 545.94 911.19 537.98 911.98 C 530.01 912.76 522.06 913.53 514.00 914.00
C 489.50 970.78 463.09 1027.09 439.00 1084.00
C 418.24 1035.04 400.37 983.67 380.00 934.00
C 267.54 951.63 158.53 983.05 51.00 1018.00
C 137.68 942.08 248.67 906.76 356.00 875.00
C 319.61 789.69 290.81 702.69 255.22 616.78 C 219.63 530.86 190.13 442.00 157.22 354.78 C 124.31 267.55 93.79 177.72 62.00 90.00
C 190.26 346.06 314.10 605.43 443.00 861.00
C 493.51 731.21 546.66 602.22 599.00 473.00
C 652.96 601.38 703.09 732.84 757.00 861.00
C 882.37 603.86 1008.28 346.31 1135.00 90.00
C 1105.66 173.30 1074.70 256.58 1044.68 339.68 C 1014.65 422.78 983.27 505.88 952.68 588.68 C 922.08 671.47 887.61 751.39 857.22 834.22 C 826.84 917.06 798.70 1001.26 765.00 1083.00
C 749.98 1055.46 738.42 1023.55 725.08 993.92 C 711.73 964.30 699.60 933.62 686.00 904.00
M 1107.00 809.00 
C 1087.54 852.62 1065.61 895.41 1046.00 939.00
C 976.33 923.59 905.41 912.75 833.00 908.00
C 836.28 897.38 840.67 889.04 844.31 878.31 C 847.94 867.57 852.81 859.76 856.31 848.31 C 859.80 836.85 865.30 831.44 868.31 818.31 C 871.31 805.17 885.44 806.09 899.00 807.00 C 912.56 807.91 927.21 806.62 941.00 807.00 C 954.79 807.38 969.12 806.90 983.00 807.00 C 996.88 807.10 1011.11 807.11 1025.00 807.00 C 1038.89 806.89 1052.41 807.09 1066.00 808.00 C 1079.59 808.91 1093.79 806.64 1107.00 809.00 Z"/>
</g>
<g fill="#FDFDFD" fill-opacity="1.00" stroke="None">
<path d="
M 442.00 471.00 
C 391.30 409.42 343.57 343.35 294.25 279.75 C 244.93 216.15 196.74 151.11 147.00 88.00
C 244.88 281.88 343.31 476.30 443.00 669.00
C 496.97 530.19 551.46 391.62 606.00 253.00
C 660.76 390.89 712.02 531.78 768.00 669.00
C 865.54 474.90 966.26 281.97 1064.00 88.00
C 964.74 215.01 868.33 344.99 769.00 472.00
C 716.40 347.56 659.61 224.41 607.00 100.00
C 550.39 222.40 496.63 347.34 442.00 471.00 Z"/>
</g>
<g fill="#FDFDFD" fill-opacity="1.00" stroke="None">
<path d="
M 356.00 875.00 
C 364.20 894.23 372.67 914.14 380.00 934.00
C 400.37 983.67 418.24 1035.04 439.00 1084.00
C 463.09 1027.09 489.50 970.78 514.00 914.00
C 525.41 887.56 537.16 860.90 549.00 835.00
C 567.13 795.36 583.13 754.07 602.00 715.00
C 617.30 750.37 633.71 785.34 648.00 821.00
C 660.30 848.53 673.72 876.20 686.00 904.00
C 699.60 933.62 711.73 964.30 725.08 993.92 C 738.42 1023.55 749.98 1055.46 765.00 1083.00
C 798.70 1001.26 826.84 917.06 857.22 834.22 C 887.61 751.39 922.08 671.47 952.68 588.68 C 983.27 505.88 1014.65 422.78 1044.68 339.68 C 1074.70 256.58 1105.66 173.30 1135.00 90.00
C 1008.28 346.31 882.37 603.86 757.00 861.00
C 703.09 732.84 652.96 601.38 599.00 473.00
C 546.66 602.22 493.51 731.21 443.00 861.00
C 314.10 605.43 190.26 346.06 62.00 90.00
C 93.79 177.72 124.31 267.55 157.22 354.78 C 190.13 442.00 219.63 530.86 255.22 616.78 C 290.81 702.69 319.61 789.69 356.00 875.00 Z"/>
</g>
<g fill="#000000" fill-opacity="1.00" stroke="None">
<path d="
M 549.00 835.00 
C 554.01 831.90 562.32 833.84 568.22 832.22 C 574.12 830.60 582.95 831.43 589.00 830.00 C 595.05 828.57 602.39 828.58 608.22 827.22 C 614.05 825.86 623.27 826.48 628.22 824.22 C 633.18 821.96 645.44 825.51 648.00 821.00
C 633.71 785.34 617.30 750.37 602.00 715.00
C 583.13 754.07 567.13 795.36 549.00 835.00 Z"/>
</g>
<g fill="#D71024" fill-opacity="1.00" stroke="None">
<path d="
M 1107.00 809.00 
C 1093.79 806.64 1079.59 808.91 1066.00 808.00 C 1052.41 807.09 1038.89 806.89 1025.00 807.00 C 1011.11 807.11 996.88 807.10 983.00 807.00 C 969.12 806.90 954.79 807.38 941.00 807.00 C 927.21 806.62 912.56 807.91 899.00 807.00 C 885.44 806.09 871.31 805.17 868.31 818.31 C 865.30 831.44 859.80 836.85 856.31 848.31 C 852.81 859.76 847.94 867.57 844.31 878.31 C 840.67 889.04 836.28 897.38 833.00 908.00
C 905.41 912.75 976.33 923.59 1046.00 939.00
C 1065.61 895.41 1087.54 852.62 1107.00 809.00 Z"/>
</g>
<g fill="#D71225" fill-opacity="1.00" stroke="None">
<path d="
M 549.00 835.00 
C 537.16 860.90 525.41 887.56 514.00 914.00
C 522.06 913.53 530.01 912.76 537.98 911.98 C 545.94 911.19 553.93 910.37 561.99 909.99 C 570.05 909.61 577.85 907.92 586.00 908.00 C 594.15 908.08 601.90 905.89 610.00 906.00 C 618.10 906.11 626.91 904.14 635.00 905.00 C 643.09 905.86 652.27 902.47 660.00 904.00 C 667.73 905.53 679.15 900.61 686.00 904.00
C 673.72 876.20 660.30 848.53 648.00 821.00
C 645.44 825.51 633.18 821.96 628.22 824.22 C 623.27 826.48 614.05 825.86 608.22 827.22 C 602.39 828.58 595.05 828.57 589.00 830.00 C 582.95 831.43 574.12 830.60 568.22 832.22 C 562.32 833.84 554.01 831.90 549.00 835.00 Z"/>
</g>
<g fill="#D61124" fill-opacity="1.00" stroke="None">
<path d="
M 380.00 934.00 
C 372.67 914.14 364.20 894.23 356.00 875.00
C 248.67 906.76 137.68 942.08 51.00 1018.00
C 158.53 983.05 267.54 951.63 380.00 934.00 Z"/>
</g>
</svg>