<?xml version="1.0" standalone="no"?>
<!DOCTYPE svg PUBLIC "-//W3C//DTD SVG 20010904//EN"
 "http://www.w3.org/TR/2001/REC-SVG-20010904/DTD/svg10.dtd">
<svg version="1.0" xmlns="http://www.w3.org/2000/svg"
 width="37.000000pt" height="23.000000pt" viewBox="0 0 37.000000 23.000000"
 preserveAspectRatio="xMidYMid meet">

<g transform="translate(0.000000,23.000000) scale(0.100000,-0.100000)"
fill="#000000" stroke="none">
<path d="M20 174 c0 -56 77 -134 132 -134 24 0 28 4 28 30 0 25 -6 33 -35 47
-21 10 -38 28 -44 45 -8 24 -15 28 -45 28 -26 0 -36 -4 -36 -16z"/>
<path d="M190 158 c0 -26 6 -37 30 -50 17 -9 35 -29 42 -43 9 -19 19 -25 45
-25 25 0 33 4 33 18 0 31 -51 99 -87 116 -51 24 -63 21 -63 -16z"/>
</g>
</svg>
